<?xml version="1.0" standalone="no"?>
<!DOCTYPE svg PUBLIC "-//W3C//DTD SVG 20010904//EN"
 "http://www.w3.org/TR/2001/REC-SVG-20010904/DTD/svg10.dtd">
<svg version="1.0" xmlns="http://www.w3.org/2000/svg"
 width="2000.000000pt" height="2000.000000pt" viewBox="0 0 2000.000000 2000.000000"
 preserveAspectRatio="xMidYMid meet">
<metadata>
Created by potrace 1.11, written by Peter Selinger 2001-2013
</metadata>
<g transform="translate(0.000000,2000.000000) scale(0.100000,-0.100000)"
fill="#000000" stroke="none">
<path d="M3127 19474 c-1 -1 -51 -4 -112 -7 -125 -7 -266 -29 -397 -63 -61
-15 -208 -65 -268 -91 -146 -61 -390 -202 -471 -271 -13 -11 -44 -37 -69 -57
-245 -200 -482 -523 -601 -820 -45 -113 -90 -256 -103 -325 -2 -14 -9 -45 -15
-70 -5 -25 -13 -65 -16 -90 -3 -25 -9 -61 -12 -80 -4 -19 -7 -3421 -8 -7560
-2 -7600 -2 -7578 30 -7775 25 -158 107 -409 183 -560 141 -283 338 -524 602
-739 26 -21 192 -133 230 -155 45 -27 220 -111 273 -132 129 -52 336 -110 437
-124 14 -2 45 -6 70 -10 25 -4 98 -10 162 -13 151 -9 11770 -7 11863 2 283 25
512 89 760 211 261 128 518 329 683 533 20 26 45 56 55 66 66 74 219 336 272
466 14 36 30 74 35 85 11 25 68 211 74 245 3 14 11 59 19 100 21 104 27 151
33 260 3 52 7 2551 8 5552 0 3001 3 5459 6 5462 3 3 473 474 1046 1048 883
884 1050 1056 1097 1129 62 94 113 199 145 299 18 59 25 84 38 145 29 135 22
335 -20 520 -25 111 -113 289 -201 406 -40 54 -388 407 -962 980 -959 957
-961 959 -1144 1043 -280 129 -608 146 -889 46 l-45 -16 -80 50 c-192 119
-478 231 -690 270 -74 14 -155 26 -220 32 -54 5 -11791 13 -11798 8z"/>
</g>
</svg>
